<svg xmlns="http://www.w3.org/2000/svg" width="211.948" height="98.038" viewBox="0 0 211.948 98.038"><defs><style>.a{fill:#f2d500;}.b{fill:#f7dd49;}.c{fill:#006fae;}.d{fill:#141414;}.e{fill:#151415;}.f{fill:#1a1818;}</style></defs><g transform="translate(-197.838 -660.543)"><g transform="translate(197.838 660.543)"><path class="a" d="M197.838,695.373a11.974,11.974,0,0,0,.331-2.457,37.12,37.12,0,0,1,5.391-14.891c5.824-9.4,14.355-14.9,25.148-16.9a32.682,32.682,0,0,1,10.337-.31,8.484,8.484,0,0,1,2.552.67c-1.134.146-2.271.271-3.4.443-7.391,1.119-14.307,3.437-20.287,8.094A34.5,34.5,0,0,0,206.97,684.95a43.181,43.181,0,0,0-3.21,17.073,34.241,34.241,0,0,0,7,19.878,50.588,50.588,0,0,0,10.032,9.974,3.079,3.079,0,0,1,.835.736,6.406,6.406,0,0,1-1.893-.492,36.8,36.8,0,0,1-18.157-17.081,34.488,34.488,0,0,1-3.245-11.081c-.163-1.175-.254-2.359-.377-3.54-.01-.1,0-.208-.123-.249v-1.352a4.123,4.123,0,0,0,0-2.213Z" transform="translate(-197.838 -660.543)"/><path class="b" d="M197.838,723.1a4.123,4.123,0,0,1,0,2.213Z" transform="translate(-197.838 -687.041)"/><path class="c" d="M266.451,735.9c.242-2.569.082-5.157.373-7.724a11.61,11.61,0,0,1,1.709-4.432c.914-1.6,1.793-3.218,2.676-4.834a7.551,7.551,0,0,0,.7-1.7,1.538,1.538,0,0,0-1-2.072,11.717,11.717,0,0,0-3.225-.721q-8.432-1.085-16.87-2.12c-6.01-.745-12.024-1.47-18.033-2.22a10.84,10.84,0,0,1-3.865-1.134,3.974,3.974,0,0,1-2.295-3.774c.189-9.166,3.074-17.231,9.855-23.64a26.285,26.285,0,0,1,13.758-6.718c8.188-1.471,15.124,1.156,21.218,6.5,4.706,4.13,7.436,9.431,9.015,15.4.3,1.13.067,1.478-1.055,1.768a15.272,15.272,0,0,1-4.752.429,2.826,2.826,0,0,1-2.2-1.287,20.839,20.839,0,0,1-1.308-2.43,23.386,23.386,0,0,0-8.418-9.407,18,18,0,0,0-21.867,2.591,23.155,23.155,0,0,0-5.956,10.162c-.381,1.257-.02,1.8,1.307,1.978,3.571.468,7.145.9,10.719,1.351q5.177.649,10.355,1.3c3.451.43,6.9.844,10.354,1.285a70.52,70.52,0,0,1,10.234,1.609c3.439.965,4.818,3.336,4.037,6.812a38.457,38.457,0,0,1-5.437,12.744,12.039,12.039,0,0,0-2.08,7.6,34.477,34.477,0,0,1-.194,5.457,4.105,4.105,0,0,1-5.563,3.267c-1.409-.615-1.816-1.9-2.045-3.282A19.029,19.029,0,0,1,266.451,735.9Z" transform="translate(-210.028 -666.415)"/><path class="d" d="M263.648,808.854a7.018,7.018,0,0,1-.918-.052c-1.6-.293-2.228-1.515-1.771-3.395a4.1,4.1,0,0,1,2.94-3.084c2.891-.924,5.825-1.7,8.755-2.495,3.758-1.014,7.494-2.1,11.264-3.071a2.679,2.679,0,0,1,3.356,3.34,3.755,3.755,0,0,1-2.161,2.582,36.126,36.126,0,0,1-6.016,2.033c-4.158,1.09-8.239,2.446-12.389,3.562A11.141,11.141,0,0,1,263.648,808.854Z" transform="translate(-224.513 -718.191)"/><path class="d" d="M272.325,823.506a2.559,2.559,0,0,1-2.722-3.43,3.813,3.813,0,0,1,2.565-2.861,73.021,73.021,0,0,1,11-3.234,4.575,4.575,0,0,1,1.458-.138,2.484,2.484,0,0,1,2.041,1.886,2.942,2.942,0,0,1-.593,3.089,6.181,6.181,0,0,1-2.706,1.613c-3.234,1.121-6.549,1.967-9.834,2.914A7.926,7.926,0,0,1,272.325,823.506Z" transform="translate(-228.185 -725.469)"/><path class="e" d="M278.058,789.911a3.09,3.09,0,0,1-1.6,2.78,18,18,0,0,1-4.423,1.57c-2.385.7-4.775,1.37-7.162,2.056a5.138,5.138,0,0,1-1.5.27c-1.922-.032-2.659-.956-2.51-2.815A3.97,3.97,0,0,1,264,790c3.449-.975,6.842-2.152,10.355-2.893a7.656,7.656,0,0,1,.966-.16C276.925,786.817,278.062,788.054,278.058,789.911Z" transform="translate(-224.527 -714.081)"/></g><g transform="translate(281.775 672.892)"><path class="f" d="M351.733,702.979c-5.266,0-8.19-3.1-8.19-8.7,0-5.926,3.46-9.666,8.979-9.666a15.042,15.042,0,0,1,4.6.865v1.552a15.363,15.363,0,0,0-4.044-.56c-4.375,0-6.741,2.62-6.741,7.453,0,4.681,2.162,7.072,6.384,7.072a23.982,23.982,0,0,0,4.4-.484v1.628A23.333,23.333,0,0,1,351.733,702.979Z" transform="translate(-343.492 -683.089)"/><path class="f" d="M371.783,702.926V684.968h2.645v16.177h6.512v1.781Z" transform="translate(-355.454 -683.238)"/><path class="f" d="M399.332,706.589v-.814a1.164,1.164,0,0,0-.229.076c-2.34.839-3.052,1.017-4.044,1.017a4.2,4.2,0,0,1-3.1-1.272c-.661-.815-.89-1.755-.89-3.638v-8.343h2.544v7.91c0,2.594.687,3.408,2.874,3.408a12.749,12.749,0,0,0,2.773-.356V693.617H401.8v12.973Z" transform="translate(-363.621 -686.902)"/><path class="f" d="M420.611,701.884a17.639,17.639,0,0,1-4.528-.763V681.967h2.544v7.479a10.135,10.135,0,0,1,3.789-1.017c3.155,0,5.317,2.594,5.317,6.409C427.733,699.06,424.884,701.884,420.611,701.884Zm.382-11.523a10.289,10.289,0,0,0-2.366.254v9.539a9.237,9.237,0,0,0,1.374.1c3.256,0,5.011-1.781,5.011-5.062C425.011,692.116,423.536,690.361,420.992,690.361Z" transform="translate(-374.218 -681.967)"/><path class="f" d="M348.42,744.464a18.348,18.348,0,0,1-4.833-.891V741.92a17.039,17.039,0,0,0,4.3.636c2.6,0,3.841-.941,3.841-2.925a2.683,2.683,0,0,0-1.628-2.543l-3.383-1.959c-1.984-1.145-2.875-2.467-2.875-4.35,0-2.95,2.111-4.731,5.622-4.731a13.727,13.727,0,0,1,4.273.865v1.6a13.462,13.462,0,0,0-3.892-.636c-2.314,0-3.459.839-3.459,2.543,0,1.2.534,1.832,2.34,2.823l2.773,1.526a4.8,4.8,0,0,1,2.874,4.528C354.372,742.454,352.058,744.464,348.42,744.464Z" transform="translate(-343.511 -700.639)"/><path class="f" d="M372.068,748.12c-3.815,0-5.977-2.315-5.977-6.385,0-4.4,2.492-6.995,6.689-6.995a11.183,11.183,0,0,1,3.459.661v1.45a11.494,11.494,0,0,0-3.027-.382c-2.951,0-4.4,1.654-4.4,5.011,0,3.307,1.424,4.783,4.579,4.783a17.151,17.151,0,0,0,2.849-.28v1.4A16.651,16.651,0,0,1,372.068,748.12Z" transform="translate(-353.043 -704.321)"/><path class="f" d="M388.81,729.075c-1.069,0-1.628-.509-1.628-1.526,0-.992.559-1.5,1.6-1.5,1.119,0,1.653.483,1.653,1.475C390.438,728.566,389.9,729.075,388.81,729.075Zm-1.272,15.16V731.262h2.543v12.972Z" transform="translate(-361.977 -700.639)"/><path class="f" d="M399.957,741.565v.178c0,3.256,1.3,4.553,4.553,4.553a22.968,22.968,0,0,0,3.332-.3v1.4a22.581,22.581,0,0,1-4.477.738c-3.968,0-6.079-2.238-6.079-6.359,0-4.375,2.238-7.071,5.9-7.071,2.594,0,4.273,1.2,4.909,3.51a12.14,12.14,0,0,1,.33,3.358Zm3.027-5.367c-1.959,0-3,1.348-3.027,3.891h5.774C405.731,737.292,404.967,736.2,402.983,736.2Z" transform="translate(-366.256 -704.302)"/><path class="f" d="M429.215,747.861V739.95c0-2.594-.687-3.408-2.874-3.408a12.56,12.56,0,0,0-2.773.356v10.963h-2.543V734.888h2.467v.814a2.322,2.322,0,0,1,.229-.076c2.366-.84,3.053-1.018,4.045-1.018a4.161,4.161,0,0,1,3.1,1.272c.662.789.891,1.781.891,3.637v8.343Z" transform="translate(-376.312 -704.264)"/><path class="f" d="M448.326,745.235c-2.416,0-3.383-1.017-3.383-3.485v-8.114h-1.857v-1.552h1.857v-3.129l2.544-.967v4.1h4.121v1.552h-4.121v7.58c0,1.6.509,2.111,2.06,2.111a11.082,11.082,0,0,0,2.061-.2v1.5A13.77,13.77,0,0,1,448.326,745.235Z" transform="translate(-385.656 -701.461)"/><path class="f" d="M462.894,729.075c-1.068,0-1.628-.509-1.628-1.526,0-.992.56-1.5,1.6-1.5,1.119,0,1.653.483,1.653,1.475C464.522,728.566,463.988,729.075,462.894,729.075Zm-1.272,15.16V731.262h2.543v12.972Z" transform="translate(-393.357 -700.639)"/><path class="f" d="M477.04,725.054c-1.806,0-2.416.559-2.416,2.187v2.9h3.027v1.552h-3.027v11.421H472.08V731.693h-1.857v-1.552h1.857v-2.7c0-2.721,1.247-4.044,3.841-4.044a11.713,11.713,0,0,1,2.721.432v1.323C478.185,725.1,477.472,725.054,477.04,725.054Z" transform="translate(-397.151 -699.517)"/><path class="f" d="M487.692,729.075c-1.069,0-1.628-.509-1.628-1.526,0-.992.559-1.5,1.6-1.5,1.119,0,1.653.483,1.653,1.475C489.32,728.566,488.786,729.075,487.692,729.075Zm-1.272,15.16V731.262h2.543v12.972Z" transform="translate(-403.861 -700.639)"/><path class="f" d="M505.142,753.666v-6.512a10.5,10.5,0,0,1-3.79,1.017c-3.154,0-5.316-2.594-5.316-6.385,0-4.095,2.8-7.046,6.69-7.046a8.634,8.634,0,0,1,2.671.407l2.289-.407v18.925Zm0-17.221a9.468,9.468,0,0,0-1.374-.1c-3.256,0-5.011,1.781-5.011,5.062,0,3.052,1.475,4.833,4.019,4.833a10.013,10.013,0,0,0,2.366-.254Z" transform="translate(-408.084 -704.321)"/><path class="f" d="M530.777,748.066v-.814a1.177,1.177,0,0,0-.229.076c-2.34.839-3.052,1.017-4.044,1.017a4.2,4.2,0,0,1-3.1-1.272c-.661-.814-.891-1.755-.891-3.638v-8.343h2.544V743c0,2.6.687,3.409,2.873,3.409a12.748,12.748,0,0,0,2.773-.356V735.094h2.543v12.972Z" transform="translate(-419.298 -704.47)"/><path class="f" d="M548.876,741.565v.178c0,3.256,1.3,4.553,4.553,4.553a22.968,22.968,0,0,0,3.332-.3v1.4a22.587,22.587,0,0,1-4.477.738c-3.968,0-6.079-2.238-6.079-6.359,0-4.375,2.238-7.071,5.9-7.071,2.594,0,4.274,1.2,4.909,3.51a12.138,12.138,0,0,1,.33,3.358ZM551.9,736.2c-1.959,0-3,1.348-3.027,3.891h5.774C554.65,737.292,553.886,736.2,551.9,736.2Z" transform="translate(-429.335 -704.302)"/><path class="f" d="M352.561,784.609v-.789c-.127.051-.2.076-.254.1a10.385,10.385,0,0,1-3.51.941c-3.23,0-5.341-2.518-5.341-6.385,0-3.993,2.671-6.995,6.232-6.995a6.72,6.72,0,0,1,2.849.636v-7.2h2.544v19.688Zm-.025-11.192a9.689,9.689,0,0,0-1.984-.2c-2.8,0-4.375,1.831-4.375,5.036,0,2.976,1.476,4.68,4.019,4.68a9.991,9.991,0,0,0,2.34-.254Z" transform="translate(-343.455 -717.104)"/><path class="f" d="M371.365,783.042v.178c0,3.256,1.3,4.553,4.553,4.553a22.98,22.98,0,0,0,3.332-.306v1.4a22.583,22.583,0,0,1-4.477.738c-3.968,0-6.079-2.238-6.079-6.359,0-4.375,2.238-7.071,5.9-7.071,2.594,0,4.273,1.2,4.909,3.51a12.157,12.157,0,0,1,.331,3.358Zm3.027-5.367c-1.959,0-3,1.348-3.027,3.892h5.774C377.139,778.768,376.375,777.674,374.391,777.674Z" transform="translate(-354.146 -721.871)"/><path class="f" d="M401.919,784.609V764.921h2.544v19.688Z" transform="translate(-368.219 -717.104)"/><path class="f" d="M413.236,773.416h-1.374l-.28-5.494h1.933Z" transform="translate(-372.312 -718.375)"/><path class="f" d="M420.363,785.88V767.922h9.716v1.755h-7.071v5.978h5.647v1.755h-5.647v6.715h7.5v1.755Z" transform="translate(-376.031 -718.375)"/><path class="f" d="M445.078,789.6a16.221,16.221,0,0,1-3.713-.661v-1.577a13.132,13.132,0,0,0,3.637.508c1.6,0,2.467-.636,2.467-1.857a1.714,1.714,0,0,0-1.17-1.6l-2.315-1.17c-1.7-.865-2.442-1.907-2.442-3.485,0-2.162,1.679-3.586,4.248-3.586a11.439,11.439,0,0,1,3.485.661v1.526a10.84,10.84,0,0,0-3.078-.484c-1.5,0-2.264.534-2.264,1.577,0,.738.407,1.2,1.526,1.781l2.34,1.2a3.335,3.335,0,0,1,2.086,3.256C449.886,788.1,448.029,789.6,445.078,789.6Z" transform="translate(-384.927 -721.871)"/><path class="f" d="M462.187,770.552c-1.069,0-1.628-.509-1.628-1.526,0-.992.559-1.5,1.6-1.5,1.119,0,1.653.483,1.653,1.475C463.815,770.043,463.28,770.552,462.187,770.552Zm-1.272,15.16V772.739h2.544v12.972Z" transform="translate(-393.057 -718.207)"/></g></g></svg>