<svg xmlns="http://www.w3.org/2000/svg" width="76" height="76" viewBox="0 0 76 76"><defs><style>.a{fill:#fff;}</style></defs><g transform="translate(-475.558 -1202.3)"><path class="a" d="M899.458,1938.673a1.292,1.292,0,0,0-.609,1.18,1.192,1.192,0,0,0,.38.954,1.575,1.575,0,0,0,1.062.327,2.348,2.348,0,0,0,1.7-.592,2.19,2.19,0,0,0,.616-1.658v-.689l-1.156.049A4.209,4.209,0,0,0,899.458,1938.673Z" transform="translate(-401.087 -697.294)"/><path class="a" d="M519.5,1258.669v-9.386q0-3.221-1.952-4.6a9.5,9.5,0,0,0-5.359-1.375v15.33h-.648v-35.375h.648v15.665q3.786-.111,5.514-1.479a5.273,5.273,0,0,0,1.8-4.4v-9.479a9,9,0,0,1,3.345-7.465,11.8,11.8,0,0,1,4.782-2.221l-9.831-9.831a5.988,5.988,0,0,0-8.469,0l-32.012,32.012a5.988,5.988,0,0,0,0,8.469l32.012,32.012a5.988,5.988,0,0,0,8.469,0l8.564-8.564a10.861,10.861,0,0,1-3.637-1.91A9.024,9.024,0,0,1,519.5,1258.669ZM494.5,1244.656h-1.184v-4.791h-5.362v4.791h-1.184v-10.181h1.184v4.332h5.362v-4.332H494.5Zm8.169,0h-.857l-.23-1.086h-.056a3.218,3.218,0,0,1-1.139.972,3.473,3.473,0,0,1-1.417.254,2.548,2.548,0,0,1-1.779-.585,2.132,2.132,0,0,1-.644-1.664q0-2.312,3.7-2.424l1.3-.042v-.474a1.936,1.936,0,0,0-.387-1.327,1.59,1.59,0,0,0-1.236-.428,5.035,5.035,0,0,0-2.159.585l-.355-.885a5.431,5.431,0,0,1,1.236-.48,5.353,5.353,0,0,1,1.348-.174,2.907,2.907,0,0,1,2.023.606,2.529,2.529,0,0,1,.658,1.943Zm3.722-1.623a1.974,1.974,0,0,0,1.682.752,5.142,5.142,0,0,0,1.957-.411v1.023a4.167,4.167,0,0,1-1.929.4,3.258,3.258,0,0,1-2.566-1.02,4.2,4.2,0,0,1-.909-2.887,4.325,4.325,0,0,1,.923-2.959,3.322,3.322,0,0,1,2.629-1.045,5.224,5.224,0,0,1,1.1.119,3.638,3.638,0,0,1,.863.278l-.355.982a5.469,5.469,0,0,0-.836-.254,3.742,3.742,0,0,0-.8-.1q-2.326,0-2.326,2.967A3.532,3.532,0,0,0,506.394,1243.033Z" transform="translate(0 0)"/><path class="a" d="M1312.73,1515.356l-18.3-18.3q-6.8.313-6.8,6.152v9.138q0,6.66-6.908,7.868v.371q6.907,1.208,6.908,7.868v9.2a5.479,5.479,0,0,0,1.812,4.585,7.287,7.287,0,0,0,3.531,1.35l19.76-19.76A5.987,5.987,0,0,0,1312.73,1515.356Zm-19.486-1.592-.355,7.375h-.731l-.355-7.375Zm-.111,10.136a.793.793,0,0,1-.62.247.846.846,0,0,1-.6-.219.943.943,0,0,1-.237-.721q0-.947.836-.947a.8.8,0,0,1,.623.244,1.019,1.019,0,0,1,.219.7A1,1,0,0,1,1293.133,1523.9Zm9.053-9.085h-3.224v9.13h-1.184v-9.13h-3.224v-1.052h7.632Z" transform="translate(-762.926 -279.289)"/></g></svg>