<svg xmlns="http://www.w3.org/2000/svg" width="20.4" height="20.4" viewBox="0 0 20.4 20.4"><defs><style>.a{fill:#cfd8db;stroke:#cfd8db;stroke-width:0.4px;}</style></defs><g transform="translate(0.2 0.2)"><g transform="translate(0)"><path class="a" d="M14.19,0H5.81A5.816,5.816,0,0,0,0,5.81V14.19A5.816,5.816,0,0,0,5.81,20H14.19A5.816,5.816,0,0,0,20,14.19V5.81A5.816,5.816,0,0,0,14.19,0Zm4.247,14.19a4.252,4.252,0,0,1-4.247,4.247H5.81A4.252,4.252,0,0,1,1.563,14.19V5.81A4.252,4.252,0,0,1,5.81,1.562H14.19A4.252,4.252,0,0,1,18.438,5.81Z"/></g><g transform="translate(5.501 5.501)"><path class="a" d="M122.5,118a4.5,4.5,0,1,0,4.5,4.5A4.5,4.5,0,0,0,122.5,118Zm0,7.693a3.195,3.195,0,1,1,3.195-3.195A3.2,3.2,0,0,1,122.5,125.693Z" transform="translate(-118 -118)"/></g><g transform="translate(14.893 3.803)"><g transform="translate(0)"><ellipse class="a" cx="0.652" cy="0.652" rx="0.652" ry="0.652"/></g></g></g></svg>