<svg xmlns="http://www.w3.org/2000/svg" width="260" height="64.736" viewBox="0 0 260 64.736"><defs><style>.a{fill:#ffdd12;}.b{fill:#004f9e;}.c{fill:#fff;}.d{fill:none;}</style></defs><g transform="translate(33.241 0.418)"><path class="a" d="M150.1,27.363c5.167,15.353,5.782,31.027,5.856,36.514,0-39.54,23.645-47.734,23.645-47.734V1.7C166.093,5.342,156.62,15.872,150.1,27.363Z" transform="translate(-146.409 -1.7)"/><path class="b" d="M135.1,113.109a131.138,131.138,0,0,1,9.547,30.805v-1.5c-.074-5.511-.689-21.16-5.856-36.514C137.437,108.287,136.207,110.723,135.1,113.109Z" transform="translate(-135.1 -80.262)"/></g><path class="a" d="M42.788,64.219c-.271-2.879-3-17.1-9.547-31.248a85.6,85.6,0,0,0-7.775-13.607c-.049-.074-.123-.172-.172-.246-.172-.246-.344-.467-.517-.714C18.651,9.916,10.629,2.854,0,0V14.443a29.122,29.122,0,0,1,9.99,6.988c7.037,8.39,12.844,21.554,13.73,42.32a3.634,3.634,0,0,0,.025.517h19.02S42.788,64.465,42.788,64.219Z"/><g transform="translate(57.846 19.881)"><path class="b" d="M256.8,121.821a13.8,13.8,0,0,0,11.244-5.438l5.979,6.151q-7.123,8.009-16.781,8.021t-15.895-6.1a20.639,20.639,0,0,1-6.25-15.4,20.8,20.8,0,0,1,6.373-15.526A21.538,21.538,0,0,1,257.048,87.3a22.083,22.083,0,0,1,17.223,7.824l-5.807,6.619a13.608,13.608,0,0,0-11-5.511,12.874,12.874,0,0,0-9.005,3.445,12.013,12.013,0,0,0-3.74,9.276,12.657,12.657,0,0,0,3.519,9.35A11.739,11.739,0,0,0,256.8,121.821Z" transform="translate(-235.1 -85.701)"/><path class="b" d="M555.645,162.332,542.9,130.1h9.325l8.021,20.274,8.021-20.274h9.325l-12.745,32.232Z" transform="translate(-467.166 -117.97)"/><path class="b" d="M710.856,162.559H701.9V130.4h8.956Z" transform="translate(-587.044 -118.196)"/><path class="b" d="M1029.256,125.163H1020.3V80.8h8.956Z" transform="translate(-827.102 -80.8)"/></g><rect class="b" width="9.153" height="8.809" transform="translate(172.677 19.807)"/><g transform="translate(33.241 0.418)"><path class="a" d="M150.1,27.363c5.167,15.353,5.782,31.027,5.856,36.514,0-39.54,23.645-47.734,23.645-47.734V1.7C166.093,5.342,156.62,15.872,150.1,27.363Z" transform="translate(-146.409 -1.7)"/><path class="b" d="M135.1,113.109a131.138,131.138,0,0,1,9.547,30.805v-1.5c-.074-5.511-.689-21.16-5.856-36.514C137.437,108.287,136.207,110.723,135.1,113.109Z" transform="translate(-135.1 -80.262)"/></g><path class="a" d="M42.788,64.219c-.271-2.879-3-17.1-9.547-31.248a85.6,85.6,0,0,0-7.775-13.607c-.049-.074-.123-.172-.172-.246-.172-.246-.344-.467-.517-.714C18.651,9.916,10.629,2.854,0,0V14.443a29.122,29.122,0,0,1,9.99,6.988c7.037,8.39,12.844,21.554,13.73,42.32a3.634,3.634,0,0,0,.025.517h19.02S42.788,64.465,42.788,64.219Z"/><g transform="translate(57.846 19.881)"><path class="b" d="M256.8,121.821a13.8,13.8,0,0,0,11.244-5.438l5.979,6.151q-7.123,8.009-16.781,8.021t-15.895-6.1a20.639,20.639,0,0,1-6.25-15.4,20.8,20.8,0,0,1,6.373-15.526A21.538,21.538,0,0,1,257.048,87.3a22.083,22.083,0,0,1,17.223,7.824l-5.807,6.619a13.608,13.608,0,0,0-11-5.511,12.874,12.874,0,0,0-9.005,3.445,12.013,12.013,0,0,0-3.74,9.276,12.657,12.657,0,0,0,3.519,9.35A11.739,11.739,0,0,0,256.8,121.821Z" transform="translate(-235.1 -85.701)"/><path class="b" d="M555.645,162.332,542.9,130.1h9.325l8.021,20.274,8.021-20.274h9.325l-12.745,32.232Z" transform="translate(-467.166 -117.97)"/><path class="b" d="M710.856,162.559H701.9V130.4h8.956Z" transform="translate(-587.044 -118.196)"/><path class="b" d="M1029.256,125.163H1020.3V80.8h8.956Z" transform="translate(-827.102 -80.8)"/></g><rect class="b" width="9.153" height="8.809" transform="translate(172.677 19.807)"/><g transform="translate(188.055 19.856)"><rect class="c" width="0.025" transform="translate(3.765 18.7)"/><path class="b" d="M791.5,156.7" transform="translate(-784.807 -138)"/><path class="b" d="M791.5,156.7" transform="translate(-784.807 -138)"/><path class="b" d="M784.574,115.467a5.165,5.165,0,0,1-4.257,2.264,2.912,2.912,0,0,1-2.264-1.058,4.134,4.134,0,0,1-.96-2.9V99.351h7.775V92.9h-7.775V80.7h-9.03V92.929H764.3v6.446h6.693a3.251,3.251,0,0,0-2.928,3.2h0v11.638a10.711,10.711,0,0,0,11.023,11.367,12.868,12.868,0,0,0,8.809-3.838Z" transform="translate(-764.3 -80.7)"/></g><g transform="translate(100.019 31.568)"><path class="d" d="M442.6,182.643Z" transform="translate(-433.718 -169.258)"/><path class="b" d="M442.4,194.9" transform="translate(-433.567 -178.513)"/><path class="c" d="M460,208.6c.025,0,.025.025,0,0h0Z" transform="translate(-446.836 -188.842)"/><path class="c" d="M442.6,182.223c0-.049.025-.074.025-.123A.268.268,0,0,1,442.6,182.223Z" transform="translate(-433.718 -168.863)"/><rect class="b" width="2.559" transform="translate(20.643 13.36)"/><path class="b" d="M455.4,182.6Z" transform="translate(-443.368 -169.24)"/><path class="c" d="M442.4,186.7Z" transform="translate(-433.567 -172.331)"/><path class="b" d="M442.4,194.9" transform="translate(-433.567 -178.513)"/><path class="b" d="M455.325,182.667Z" transform="translate(-443.293 -169.281)"/><path class="b" d="M455.4,182.7Z" transform="translate(-443.368 -169.315)"/><path class="d" d="M442.6,182.643Z" transform="translate(-433.718 -169.258)"/><path class="c" d="M442.4,186.7v1.993a3.163,3.163,0,0,1,.172-.837" transform="translate(-433.567 -172.331)"/><path class="b" d="M438.782,148.082v-4.773q0-7.012-4.626-11a17.424,17.424,0,0,0-22.784.467c-3.248,3-4.872,7.012-4.872,12.081s1.6,9.1,4.773,12.106a16.994,16.994,0,0,0,12.106,4.5,18.073,18.073,0,0,0,12.77-5.142l-5.019-5.438a10.33,10.33,0,0,1-7.775,3.174,8.883,8.883,0,0,1-5.265-1.673,6.475,6.475,0,0,1-2.756-4.306h23.448Zm-20.25-6.4h-.049a3.1,3.1,0,0,0-2.288,1.009h0a3.5,3.5,0,0,0-.714,1.156,3.163,3.163,0,0,0-.172.837V142.5c0-.271.025-.541.049-.812h0v-.025c0-.049.025-.074.025-.123a6.423,6.423,0,0,1,2.756-4.232,8.055,8.055,0,0,1,4.872-1.624,6.766,6.766,0,0,1,4.5,1.55,6.36,6.36,0,0,1,2.141,4.429H418.532Z" transform="translate(-406.5 -128.3)"/></g><path class="b" d="M897.968,131.128A15,15,0,0,0,888.4,128.2a23.975,23.975,0,0,0-14.468,4.6l4.011,5.807a16.836,16.836,0,0,1,4.4-2.313,14.7,14.7,0,0,1,4.921-.935c3.617,0,5.438,1.722,5.438,5.142v.172H886.01c-4.158,0-7.406.812-9.817,2.46a8.333,8.333,0,0,0-3.592,7.381,9.846,9.846,0,0,0,3.469,7.9,12.776,12.776,0,0,0,8.587,2.953,10.607,10.607,0,0,0,8.587-4.355V160.9h8.44V140.4C901.683,136.172,900.453,133.1,897.968,131.128Zm-5.315,17.519a4.809,4.809,0,0,1-1.821,3.912,6.5,6.5,0,0,1-4.207,1.476,6.151,6.151,0,0,1-3.666-.935,3.056,3.056,0,0,1-1.279-2.657c0-2.239,1.8-3.346,5.388-3.346h2.46a3.221,3.221,0,0,0,3.174-3.125Z" transform="translate(-657.898 -96.657)"/></svg>