<?xml version="1.0" encoding="UTF-8" standalone="no"?>
<!-- Generator: Adobe Illustrator 19.0.0, SVG Export Plug-In . SVG Version: 6.00 Build 0)  -->

<svg
   xmlns:dc="http://purl.org/dc/elements/1.1/"
   xmlns:cc="http://creativecommons.org/ns#"
   xmlns:rdf="http://www.w3.org/1999/02/22-rdf-syntax-ns#"
   xmlns:svg="http://www.w3.org/2000/svg"
   xmlns="http://www.w3.org/2000/svg"
   xmlns:sodipodi="http://sodipodi.sourceforge.net/DTD/sodipodi-0.dtd"
   xmlns:inkscape="http://www.inkscape.org/namespaces/inkscape"
   version="1.1"
   id="Capa_1"
   x="0px"
   y="0px"
   viewBox="0 0 512 512"
   style="enable-background:new 0 0 512 512;"
   xml:space="preserve"
   sodipodi:docname="menu.svg"
   inkscape:version="0.92.4 (5da689c313, 2019-01-14)"><metadata
   id="metadata47"><rdf:RDF><cc:Work
       rdf:about=""><dc:format>image/svg+xml</dc:format><dc:type
         rdf:resource="http://purl.org/dc/dcmitype/StillImage" /></cc:Work></rdf:RDF></metadata><defs
   id="defs45" /><sodipodi:namedview
   pagecolor="#ffffff"
   bordercolor="#666666"
   borderopacity="1"
   objecttolerance="10"
   gridtolerance="10"
   guidetolerance="10"
   inkscape:pageopacity="0"
   inkscape:pageshadow="2"
   inkscape:window-width="2560"
   inkscape:window-height="1406"
   id="namedview43"
   showgrid="false"
   inkscape:zoom="1.3037281"
   inkscape:cx="172.25714"
   inkscape:cy="231.57499"
   inkscape:window-x="-11"
   inkscape:window-y="-11"
   inkscape:window-maximized="1"
   inkscape:current-layer="Capa_1" />
<g
   id="g6">
	<path
   style="fill:#ffffff;fill-opacity:1"
   d="M479.18,91.897H32.821C14.69,91.897,0,77.207,0,59.077s14.69-32.821,32.821-32.821H479.18   c18.13,0,32.82,14.69,32.82,32.821S497.31,91.897,479.18,91.897z"
   id="path2" />
	<path
   style="fill:#ffffff;fill-opacity:1"
   d="M295.385,288.821H32.821C14.69,288.821,0,274.13,0,256s14.69-32.821,32.821-32.821h262.564   c18.13,0,32.821,14.69,32.821,32.821S313.515,288.821,295.385,288.821z"
   id="path4" />
</g>
<path
   style="fill:#ffffff;fill-opacity:1;opacity:0.375"
   d="M479.18,288.821h-52.513c-18.13,0-32.821-14.69-32.821-32.821s14.69-32.821,32.821-32.821h52.513  c18.13,0,32.82,14.69,32.82,32.821S497.31,288.821,479.18,288.821z"
   id="path8" />
<path
   style="fill:#ffffff;fill-opacity:1"
   d="M479.18,485.744H32.821C14.69,485.744,0,471.053,0,452.923c0-18.13,14.69-32.821,32.821-32.821  H479.18c18.13,0,32.82,14.69,32.82,32.821C512,471.053,497.31,485.744,479.18,485.744z"
   id="path10" />
<g
   id="g12">
</g>
<g
   id="g14">
</g>
<g
   id="g16">
</g>
<g
   id="g18">
</g>
<g
   id="g20">
</g>
<g
   id="g22">
</g>
<g
   id="g24">
</g>
<g
   id="g26">
</g>
<g
   id="g28">
</g>
<g
   id="g30">
</g>
<g
   id="g32">
</g>
<g
   id="g34">
</g>
<g
   id="g36">
</g>
<g
   id="g38">
</g>
<g
   id="g40">
</g>
</svg>