<svg xmlns="http://www.w3.org/2000/svg" width="20" height="15.817" viewBox="0 0 20 15.817"><defs><style>.a{fill:#cfd8db;}</style></defs><g transform="translate(0 0)"><path class="a" d="M20,1.871a8.368,8.368,0,0,1-2.356.629,4.032,4.032,0,0,0,1.8-2.208,8.409,8.409,0,0,1-2.607.97A4.144,4.144,0,0,0,13.846,0a4.05,4.05,0,0,0-4.1,3.993,3.9,3.9,0,0,0,.106.91A11.756,11.756,0,0,1,1.393.73,3.884,3.884,0,0,0,.839,2.738,3.966,3.966,0,0,0,2.663,6.062,4.188,4.188,0,0,1,.8,5.561v.05A4.027,4.027,0,0,0,4.1,9.527a4.262,4.262,0,0,1-1.081.14,4.042,4.042,0,0,1-.772-.074,4.093,4.093,0,0,0,3.832,2.774,8.375,8.375,0,0,1-5.1,1.707A8.953,8.953,0,0,1,0,14.019a11.827,11.827,0,0,0,6.289,1.8A11.432,11.432,0,0,0,17.962,4.452l-.014-.517A8.078,8.078,0,0,0,20,1.871Z" transform="translate(0 0)"/></g></svg>