<svg xmlns="http://www.w3.org/2000/svg" width="20.391" height="20.35" viewBox="0 0 20.391 20.35"><defs><style>.a{fill:#cfd8db;}</style></defs><g transform="translate(-459 -162)"><path class="a" d="M690.488,509.807c1.559-.221,2.926-1.849,3.786-4.252a18.51,18.51,0,0,0-3.786-.446Zm0,0" transform="translate(-220.928 -327.457)"/><path class="a" d="M738.421,522.485c.092-.027.184-.053.275-.083s.153-.051.228-.078.179-.063.268-.1.151-.059.226-.09l.259-.109c.075-.033.149-.068.224-.1s.168-.08.251-.122l.219-.114q.122-.066.243-.134c.073-.041.143-.083.214-.125l.236-.146q.105-.067.209-.136c.077-.052.153-.106.228-.16s.135-.1.2-.146.148-.114.221-.173.13-.1.193-.156.143-.123.213-.186.124-.109.185-.166.137-.132.205-.2.118-.115.176-.174l.032-.034a12.241,12.241,0,0,0-2.5-.961,9.043,9.043,0,0,1-2.329,3.782l.089-.022c.078-.022.154-.046.231-.069Zm0,0" transform="translate(-266.37 -340.517)"/><path class="a" d="M799.191,393.039h-4.37a18.9,18.9,0,0,1-.736,5.042,12.681,12.681,0,0,1,2.766,1.1,10.182,10.182,0,0,0,2.339-6.142Zm0,0" transform="translate(-319.8 -220.499)"/><path class="a" d="M690.488,275.332h4.733a18.23,18.23,0,0,0-.718-4.863,19.2,19.2,0,0,1-4.015.479Zm0,0" transform="translate(-220.928 -103.521)"/><path class="a" d="M690.488,162v4.7a18.512,18.512,0,0,0,3.786-.446c-.86-2.4-2.227-4.031-3.786-4.252Zm0,0" transform="translate(-220.928)"/><path class="a" d="M690.488,397.423a19.217,19.217,0,0,1,4.015.479,18.23,18.23,0,0,0,.718-4.863h-4.733Zm0,0" transform="translate(-220.928 -220.499)"/><path class="a" d="M796.852,242.414a12.68,12.68,0,0,1-2.766,1.1,18.9,18.9,0,0,1,.736,5.042h4.37a10.185,10.185,0,0,0-2.339-6.142Zm0,0" transform="translate(-319.8 -76.746)"/><path class="a" d="M742.891,171.289l-.031-.034c-.058-.059-.117-.117-.176-.174s-.135-.134-.2-.2-.123-.109-.185-.166-.141-.126-.214-.186-.128-.1-.192-.155-.148-.118-.223-.174-.133-.1-.2-.146-.153-.109-.23-.162-.137-.091-.207-.135-.157-.1-.238-.148-.141-.084-.212-.124-.163-.092-.246-.136-.146-.076-.219-.113-.168-.083-.255-.123-.147-.068-.222-.1-.173-.073-.26-.109-.15-.061-.226-.09-.178-.066-.268-.1-.151-.053-.228-.078-.182-.056-.276-.083c-.076-.022-.152-.045-.229-.065l-.089-.022a9.046,9.046,0,0,1,2.329,3.782,12.229,12.229,0,0,0,2.5-.962Zm0,0" transform="translate(-266.332 -6.174)"/><path class="a" d="M459,248.556h4.37a18.91,18.91,0,0,1,.736-5.042,12.663,12.663,0,0,1-2.766-1.1,10.182,10.182,0,0,0-2.34,6.142Zm0,0" transform="translate(0 -76.746)"/><path class="a" d="M595.294,509.807v-4.7a18.522,18.522,0,0,0-3.786.446c.86,2.4,2.227,4.031,3.786,4.252Zm0,0" transform="translate(-126.463 -327.457)"/><path class="a" d="M575.5,393.039h-4.733a18.213,18.213,0,0,0,.717,4.863,19.19,19.19,0,0,1,4.015-.479Zm0,0" transform="translate(-106.667 -220.499)"/><path class="a" d="M595.294,162c-1.559.221-2.927,1.849-3.786,4.252a18.485,18.485,0,0,0,3.786.446Zm0,0" transform="translate(-126.463)"/><path class="a" d="M575.5,270.948a19.2,19.2,0,0,1-4.015-.479,18.213,18.213,0,0,0-.717,4.863H575.5Zm0,0" transform="translate(-106.667 -103.521)"/><path class="a" d="M525.93,168.461l-.089.022c-.077.021-.154.044-.23.066s-.182.053-.274.083-.154.052-.23.078-.179.063-.267.1-.151.059-.227.09l-.259.109c-.075.033-.149.067-.224.1s-.168.08-.251.122l-.219.114q-.122.066-.243.135t-.215.125c-.079.048-.158.1-.235.146s-.14.09-.209.137-.153.106-.228.16-.135.1-.2.146-.146.114-.221.173-.13.1-.193.157-.142.122-.212.185-.125.109-.186.167-.137.132-.2.2-.119.115-.176.175l-.032.034a12.227,12.227,0,0,0,2.5.961,9.041,9.041,0,0,1,2.328-3.78Zm0,0" transform="translate(-59.272 -6.166)"/><path class="a" d="M521.349,519.911c.068.067.135.134.2.2s.123.109.185.165.141.126.214.186.127.1.192.155.146.118.223.174.132.1.2.146.153.109.231.162.137.091.207.135.158.1.238.148.141.084.212.124.163.092.246.136.146.076.219.113.168.083.255.123.147.068.222.1.173.073.26.109.15.061.226.09.178.066.268.1.152.053.228.078.182.056.276.083c.076.022.152.045.228.065l.089.022a9.045,9.045,0,0,1-2.329-3.782,12.225,12.225,0,0,0-2.5.961l.031.034c.055.059.114.116.173.174Zm0,0" transform="translate(-59.31 -340.468)"/><path class="a" d="M461.34,399.181a12.682,12.682,0,0,1,2.766-1.1,18.91,18.91,0,0,1-.736-5.042H459a10.184,10.184,0,0,0,2.34,6.142Zm0,0" transform="translate(0 -220.499)"/></g></svg>