<svg xmlns="http://www.w3.org/2000/svg" width="20.198" height="14.142" viewBox="0 0 20.198 14.142"><defs><style>.a{fill:#cfd8db;}</style></defs><g transform="translate(-363 -161)"><path class="a" d="M382.782,163.213a2.53,2.53,0,0,0-1.78-1.78c-1.58-.432-7.9-.432-7.9-.432s-6.322,0-7.9.416a2.582,2.582,0,0,0-1.78,1.8,28.581,28.581,0,0,0,0,9.716,2.531,2.531,0,0,0,1.78,1.78c1.6.433,7.9.433,7.9.433s6.322,0,7.9-.416a2.531,2.531,0,0,0,1.78-1.78,26.669,26.669,0,0,0,.416-4.858,25.307,25.307,0,0,0-.416-4.875Zm-11.7,7.886v-6.056l5.257,3.028Zm0,0"/></g></svg>